<svg id="checked" xmlns="http://www.w3.org/2000/svg" width="44.26" height="42.488" viewBox="0 0 44.26 42.488">
    <path id="Path_178006" data-name="Path 178006" d="M61.76,50.831c0,2.012-3.658,3.4-4.262,5.213s1.518,5.158.384,6.712-4.938.567-6.511,1.719-1.829,5.048-3.658,5.67-4.243-2.433-6.255-2.433S37,70.749,35.185,70.164s-2.085-4.536-3.658-5.67-5.341-.146-6.53-1.719.988-4.847.384-6.712-4.225-3.219-4.225-5.231,3.658-3.4,4.262-5.213S23.9,40.46,25,38.887s4.938-.567,6.511-1.719,1.829-5.048,3.658-5.67,4.28,2.451,6.292,2.451,4.463-3.036,6.274-2.451,2.085,4.536,3.658,5.67,5.359.146,6.511,1.719-.988,4.847-.384,6.712S61.76,48.819,61.76,50.831Z" transform="translate(-19.327 -29.585)" fill="#ea2224"/>
    <g id="Group_96052" data-name="Group 96052" transform="translate(0 0)">
        <path id="Path_178007" data-name="Path 178007" d="M16.359,52.743a3.383,3.383,0,0,1-1.064-.17c-1.8-.58-2.53-2.4-3.177-4a6.947,6.947,0,0,0-.988-1.931,6.786,6.786,0,0,0-2.1-.329c-1.633-.11-3.665-.245-4.82-1.772-1.185-1.567-.664-3.565-.245-5.169a6.575,6.575,0,0,0,.348-2.083,6.416,6.416,0,0,0-1.481-1.48C1.571,34.767,0,33.463,0,31.5s1.6-3.294,2.888-4.355A6.766,6.766,0,0,0,4.357,25.71a7.044,7.044,0,0,0-.351-2.1c-.426-1.666-.911-3.557.165-5.1,1.1-1.578,3.155-1.712,4.8-1.82a6.758,6.758,0,0,0,2.125-.329,6.753,6.753,0,0,0,.99-1.924c.644-1.591,1.374-3.393,3.162-4,1.82-.622,3.541.476,4.92,1.353a6.416,6.416,0,0,0,1.961,1,6.491,6.491,0,0,0,1.983-1c1.436-.907,3.062-1.935,4.852-1.359s2.53,2.394,3.175,3.995a6.959,6.959,0,0,0,.99,1.933,6.758,6.758,0,0,0,2.1.329c1.639.11,3.68.247,4.812,1.792s.631,3.532.223,5.121a6.693,6.693,0,0,0-.344,2.109,6.517,6.517,0,0,0,1.487,1.478c1.268,1.048,2.846,2.354,2.846,4.317s-1.6,3.3-2.888,4.357A6.808,6.808,0,0,0,39.9,37.3a6.98,6.98,0,0,0,.344,2.081c.426,1.681.909,3.589-.216,5.13s-3.064,1.664-4.779,1.781a6.722,6.722,0,0,0-2.129.337,6.893,6.893,0,0,0-.988,1.926c-.646,1.589-1.374,3.391-3.162,4-1.82.62-3.53-.47-4.9-1.342a6.329,6.329,0,0,0-1.942-.991,6.491,6.491,0,0,0-1.983,1A7.506,7.506,0,0,1,16.359,52.743Zm0-38.828a11.1,11.1,0,0,0-.878,1.895,7.6,7.6,0,0,1-2.219,3.5,7.493,7.493,0,0,1-4.049,1.03,6.824,6.824,0,0,0-2.1.318A13.382,13.382,0,0,0,7.548,22.7a7.432,7.432,0,0,1,.276,4.167,7.349,7.349,0,0,1-2.612,3.1c-.516.424-1.474,1.216-1.558,1.56A7.391,7.391,0,0,0,5.171,33,7.478,7.478,0,0,1,7.8,36.17,7.5,7.5,0,0,1,7.506,40.3a6.523,6.523,0,0,0-.348,2.089,9.1,9.1,0,0,0,2.116.278,7.5,7.5,0,0,1,3.995,1.01,7.583,7.583,0,0,1,2.241,3.528,6.919,6.919,0,0,0,.977,1.917,14.783,14.783,0,0,0,1.706-1,7.711,7.711,0,0,1,3.94-1.569,7.607,7.607,0,0,1,3.91,1.564,6.63,6.63,0,0,0,1.822.953,11.042,11.042,0,0,0,.88-1.9,7.607,7.607,0,0,1,2.219-3.5,7.608,7.608,0,0,1,4.046-1.035,6.666,6.666,0,0,0,2.111-.331,12.048,12.048,0,0,0-.417-2.03,7.407,7.407,0,0,1-.267-4.137,7.337,7.337,0,0,1,2.612-3.1A7.067,7.067,0,0,0,40.6,31.5a6.92,6.92,0,0,0-1.513-1.5,7.445,7.445,0,0,1-2.636-3.168,7.591,7.591,0,0,1,.278-4.146,6.609,6.609,0,0,0,.344-2.1,9.9,9.9,0,0,0-2.08-.258,7.5,7.5,0,0,1-4-1.011A7.583,7.583,0,0,1,28.752,15.8a6.925,6.925,0,0,0-.977-1.915,15.026,15.026,0,0,0-1.707,1,7.711,7.711,0,0,1-3.94,1.569A7.658,7.658,0,0,1,18.2,14.882,6.514,6.514,0,0,0,16.359,13.915ZM40.606,31.528h0Z" transform="translate(0 -10.255)" fill="#005b52"/>
        <path id="Path_178008" data-name="Path 178008" d="M156.923,186.317a1.819,1.819,0,0,1-1.293-.536l-4.884-4.883a1.829,1.829,0,1,1,2.586-2.586l3.47,3.468,8.154-9.75a1.83,1.83,0,0,1,2.807,2.348l-9.438,11.285a1.827,1.827,0,0,1-1.323.653C156.978,186.317,156.95,186.317,156.923,186.317Z" transform="translate(-137.224 -157.444)" fill="#005b52"/>
    </g>
</svg>
