<svg id="Group_176290" data-name="Group 176290" xmlns="http://www.w3.org/2000/svg" width="139.152" height="98.125" viewBox="0 0 139.152 98.125">
  <path id="Path_270926" data-name="Path 270926" d="M759.244,181.622a9.422,9.422,0,1,1-9.422-9.422,9.425,9.425,0,0,1,9.422,9.422" transform="translate(-657.348 -135.956)" fill="#ffd400"/>
  <path id="Path_270927" data-name="Path 270927" d="M876.34,196c-.12.18-.22.36-.34.52h0c.12-.18.22-.34.34-.52" transform="translate(-765.214 -155.147)" fill="#81ba28"/>
  <path id="Path_270928" data-name="Path 270928" d="M876.34,196c-.12.18-.22.36-.34.52h0c.12-.18.22-.34.34-.52" transform="translate(-765.214 -155.147)" fill="#090d4c"/>
  <path id="Path_270929" data-name="Path 270929" d="M839.707,18.46c-1.32,2.1-18.924,29.786-20.6,32.447q-.6.93-1.14,1.8c-.24.38-.5.76-.74,1.14A18.632,18.632,0,0,0,802.1,40.124c.34-.52,10.662-16.863,13.263-21,.3-.48.56-.82,1.22-.82,7.6.02,15.183.02,22.785.04.06-.04.14.02.34.12" transform="translate(-704.956 -14.639)" fill="#81ba28"/>
  <path id="Path_270930" data-name="Path 270930" d="M817.79,308.866c-3.8,4.521-8.082,7.7-13.523,8.982-7.482,1.76-14.6.96-20.984-3.661-4.641-3.361-7.462-8.042-9.522-13.283-.06-.16-.14-.34-.22-.56a.289.289,0,0,1-.04-.14c-.54-1.4-1.46-3.941-2.36-6.661-.74-2.24-1.46-4.6-1.94-6.621a18.639,18.639,0,0,0,17.564-5.881l.04-.04c1.26,3.1,2.56,7.982,3.8,11.762,0,.02,0,.02.02.04.34,1.04.66,1.98,1,2.8,1.38,3.441,2.841,6.781,5.581,9.342l.56.5c3.6,2.981,7.882,3.761,12.383,3.9a70.215,70.215,0,0,0,7.642-.48" transform="translate(-678.638 -220.858)" fill="#e52f2e"/>
  <path id="Path_270931" data-name="Path 270931" d="M421.966,56.055a117.952,117.952,0,0,1-15.727,17.984c-5.03,4.564-10.4,8.669-16.873,11.128a21.021,21.021,0,0,1-7.683,1.438c-7.513.021-12.9-4.605-14.517-12.337a41.123,41.123,0,0,1,1.252-20.234A86.543,86.543,0,0,1,386.9,21.317c3.842-4.355,8.235-8.106,13.987-9.9,4.054-1.271,8.15-1.625,12.119.375a16.843,16.843,0,0,1,6.9,6.877,53.859,53.859,0,0,1,5.221,12.92A19.916,19.916,0,0,1,438.69,26.3a21.386,21.386,0,0,1,3.078.229c.064-.1.509-.771,1.189-1.834-.891-2.042-1.655-3.9-2.526-5.689A33.593,33.593,0,0,0,428.779,5.021C422.5.853,415.535-.481,408.043.144a59.678,59.678,0,0,0-26.573,8.44,81.815,81.815,0,0,0-30.181,31.529c-4.563,8.44-7.195,17.421-6.452,27.111.934,12.482,7.344,21.4,18.741,26.861,8.85,4.251,18.3,4.626,27.846,3.48a59.459,59.459,0,0,0,22.328-7.439c8.384-4.751,15.642-10.961,22.391-17.734.234-.229.382-.583.7-.75-.785-2.334-1.549-4.793-2.037-6.9a19.838,19.838,0,0,1-12.841-8.69" transform="translate(-344.713 0.002)" fill="#4bbcec"/>
</svg>
