<svg xmlns="http://www.w3.org/2000/svg" width="110.601" height="100.002" viewBox="0 0 110.601 100.002">
    <g id="custom-fox-8394924" transform="translate(1.782 0.977)">
        <path id="Path_270821" data-name="Path 270821" d="M292.866,66l-15.67.017-6.209-16.291Z" transform="translate(-231.704 -35.876)" fill="#f78419" stroke="#f78419" stroke-width="1"/>
        <path id="Path_270822" data-name="Path 270822" d="M270.987,49.667l28.3-.048-6.424,16.323Z" transform="translate(-231.704 -35.819)" fill="#f78419" stroke="#f78419" stroke-width="1"/>
        <path id="Path_270823" data-name="Path 270823" d="M211.389,101.065l-17.87-4.159-1.049-4.219Z" transform="translate(-189.166 -59.153)" fill="#773900" stroke="#773900" stroke-width="1"/>
        <path id="Path_270824" data-name="Path 270824" d="M202.069,119.1l14.521-8.131,7.649,1.778Z" transform="translate(-194.366 -69.058)" fill="#773900" stroke="#773900" stroke-width="1"/>
        <path id="Path_270825" data-name="Path 270825" d="M196.323,111.877l17.153-.907L198.956,119.1Z" transform="translate(-191.253 -69.058)" fill="#773900" stroke="#773900" stroke-width="1"/>
        <path id="Path_270826" data-name="Path 270826" d="M195.476,106.96l-.717-5.066,17.87,4.159Z" transform="translate(-190.405 -64.141)" fill="#773900" stroke="#773900" stroke-width="1"/>
        <path id="Path_270827" data-name="Path 270827" d="M375.393,119.03l-22.266-6.352,7.752-1.79Z" transform="translate(-276.205 -69.013)" fill="#773900" stroke="#773900" stroke-width="1"/>
        <path id="Path_270828" data-name="Path 270828" d="M370.045,100.916l18.945-8.434-1.057,4.237Z" transform="translate(-285.371 -59.042)" fill="#773900" stroke="#773900" stroke-width="1"/>
        <path id="Path_270829" data-name="Path 270829" d="M387.206,111.777l-2.648,7.253-14.514-8.143Z" transform="translate(-285.371 -69.013)" fill="#773900" stroke="#773900" stroke-width="1"/>
        <path id="Path_270830" data-name="Path 270830" d="M387.206,106.816l-17.162-.89,17.888-4.2Z" transform="translate(-285.371 -64.052)" fill="#773900" stroke="#773900" stroke-width="1"/>
        <path id="Path_270831" data-name="Path 270831" d="M216.065,196.07l-24.229,7.6L185.3,179.654Z" transform="translate(-185.281 -106.269)" fill="#e47719" stroke="#e47719" stroke-width="1"/>
        <path id="Path_270832" data-name="Path 270832" d="M211.84,62.662,211.389,84.8,192.47,76.42Z" transform="translate(-189.166 -42.886)" fill="#773900" stroke="#773900" stroke-width="1"/>
        <path id="Path_270833" data-name="Path 270833" d="M241.406,86.576,233.758,84.8l.451-22.136Z" transform="translate(-211.534 -42.886)" fill="#773900" stroke="#773900" stroke-width="1"/>
        <path id="Path_270834" data-name="Path 270834" d="M237.162,49.9,197.093,19.971,230.953,33.6Z" transform="translate(-191.67 -19.757)" fill="#e47719" stroke="#e47719" stroke-width="1"/>
        <path id="Path_270835" data-name="Path 270835" d="M381.961,179.8l-6.544,24.094-24.587-7.688Z" transform="translate(-274.961 -106.348)" fill="#e47719" stroke="#e47719" stroke-width="1"/>
        <path id="Path_270836" data-name="Path 270836" d="M358.865,19.5l-40.13,30.122L325.158,33.3Z" transform="translate(-257.572 -19.504)" fill="#e17719" stroke="#e17719" stroke-width="1"/>
        <path id="Path_270837" data-name="Path 270837" d="M388.272,76.22l-18.945,8.434-.607-22.188Z" transform="translate(-284.653 -42.779)" fill="#773900" stroke="#773900" stroke-width="1"/>
        <path id="Path_270838" data-name="Path 270838" d="M360.272,62.465l.607,22.188-7.752,1.79Z" transform="translate(-276.205 -42.779)" fill="#773900" stroke="#773900" stroke-width="1"/>
        <path id="Path_270839" data-name="Path 270839" d="M208.3,131.549l-23,20.507,7.684-23.341Z" transform="translate(-185.281 -78.672)" fill="#f78419" stroke="#f78419" stroke-width="1"/>
        <path id="Path_270840" data-name="Path 270840" d="M185.3,178.284l19.588-1.159L216.065,194.7Z" transform="translate(-185.281 -104.899)" fill="#e47719" stroke="#e47719" stroke-width="1"/>
        <path id="Path_270841" data-name="Path 270841" d="M204.888,154.248,185.3,155.408l23-20.507Z" transform="translate(-185.281 -82.023)" fill="#f78419" stroke="#f78419" stroke-width="1"/>
        <path id="Path_270842" data-name="Path 270842" d="M367.633,131.507l15.619-2.85,7.813,23.434Z" transform="translate(-284.065 -78.641)" fill="#f78419" stroke="#f78419" stroke-width="1"/>
        <path id="Path_270843" data-name="Path 270843" d="M350.83,194.8l11.115-17.593,20.017,1.187Z" transform="translate(-274.961 -104.945)" fill="#e47719" stroke="#e47719" stroke-width="1"/>
        <path id="Path_270844" data-name="Path 270844" d="M367.633,134.877l23.432,20.585-20.017-1.187Z" transform="translate(-284.065 -82.01)" fill="#f78419" stroke="#f78419" stroke-width="1"/>
        <path id="Path_270845" data-name="Path 270845" d="M234.742,62.662,257.56,73.025,241.94,86.576Z" transform="translate(-212.067 -42.886)" fill="#773900" stroke="#773900" stroke-width="1"/>
        <path id="Path_270846" data-name="Path 270846" d="M187.477,94.3l2.288-1.616,1.049,4.219Z" transform="translate(-186.46 -59.153)" fill="#773900" stroke="#773900" stroke-width="1"/>
        <path id="Path_270847" data-name="Path 270847" d="M334.494,86.444,318.735,72.9l22.9-10.436Z" transform="translate(-257.572 -42.779)" fill="#773900" stroke="#773900" stroke-width="1"/>
        <path id="Path_270848" data-name="Path 270848" d="M192.415,106.96l-3.305-3.117,2.588-1.948Z" transform="translate(-187.345 -64.141)" fill="#773900" stroke="#773900" stroke-width="1"/>
        <path id="Path_270849" data-name="Path 270849" d="M196.454,120.174l-4.749-5.743,2.117-1.482Z" transform="translate(-188.751 -70.13)" fill="#773900" stroke="#773900" stroke-width="1"/>
        <path id="Path_270850" data-name="Path 270850" d="M412.43,94.1l-3.348,2.619,1.057-4.237Z" transform="translate(-306.521 -59.042)" fill="#773900" stroke="#773900" stroke-width="1"/>
        <path id="Path_270851" data-name="Path 270851" d="M401.718,120.082l2.648-7.253,2.118,1.485Z" transform="translate(-302.531 -70.065)" fill="#773900" stroke="#773900" stroke-width="1"/>
        <path id="Path_270852" data-name="Path 270852" d="M407.5,106.816l.726-5.086,2.591,1.952Z" transform="translate(-305.662 -64.052)" fill="#773900" stroke="#773900" stroke-width="1"/>
        <path id="Path_270853" data-name="Path 270853" d="M188.563,72.247l-3.3-17.288,22.675,3.53Z" transform="translate(-185.258 -38.712)" fill="#773900" stroke="#773900" stroke-width="1"/>
        <path id="Path_270854" data-name="Path 270854" d="M368.72,58.2l22.8-3.612L388.272,71.95Z" transform="translate(-284.653 -38.509)" fill="#773900" stroke="#773900" stroke-width="1"/>
        <path id="Path_270855" data-name="Path 270855" d="M202.069,121.2l22.169-6.353-6.857,9.188Z" transform="translate(-194.366 -71.16)" fill="#f78419" stroke="#f78419" stroke-width="1"/>
        <path id="Path_270856" data-name="Path 270856" d="M375.393,121.147,359.774,124l-6.647-9.2Z" transform="translate(-276.205 -71.13)" fill="#f78419" stroke="#f78419" stroke-width="1"/>
        <path id="Path_270857" data-name="Path 270857" d="M250.45,98.828l15.62-13.551,1.251,23.408Z" transform="translate(-220.578 -55.138)" fill="#e47719" stroke="#e47719" stroke-width="1"/>
        <path id="Path_270858" data-name="Path 270858" d="M259.214,124.707l-23.727-.669,6.856-9.187Z" transform="translate(-212.471 -71.16)" fill="#e47719" stroke="#e47719" stroke-width="1"/>
        <path id="Path_270859" data-name="Path 270859" d="M332.742,114.795l6.647,9.2-23.888.678Z" transform="translate(-255.82 -71.13)" fill="#e47719" stroke="#e47719" stroke-width="1"/>
        <path id="Path_270860" data-name="Path 270860" d="M315.5,108.663l1.482-23.423,15.759,13.543Z" transform="translate(-255.82 -55.118)" fill="#e47719" stroke="#e47719" stroke-width="1"/>
        <path id="Path_270861" data-name="Path 270861" d="M197.093,19.971,237.162,49.9,214.345,39.533Z" transform="translate(-191.67 -19.757)" fill="#773900" stroke="#773900" stroke-width="1"/>
        <path id="Path_270862" data-name="Path 270862" d="M207.933,39.533,185.258,36l5.423-16.032Z" transform="translate(-185.258 -19.757)" fill="#773900" stroke="#773900" stroke-width="1"/>
        <path id="Path_270863" data-name="Path 270863" d="M385.945,19.5l5.574,16.074-22.8,3.612Z" transform="translate(-284.653 -19.504)" fill="#773900" stroke="#773900" stroke-width="1"/>
        <path id="Path_270864" data-name="Path 270864" d="M341.639,39.19l-22.9,10.436L358.865,19.5Z" transform="translate(-257.572 -19.504)" fill="#773900" stroke="#773900" stroke-width="1"/>
        <path id="Path_270865" data-name="Path 270865" d="M284.538,85.257l15.67-.017-1.482,23.423Z" transform="translate(-239.045 -55.118)" fill="#f78419" stroke="#f78419" stroke-width="1"/>
        <path id="Path_270866" data-name="Path 270866" d="M298.726,108.683l-12.937,0-1.251-23.408Z" transform="translate(-239.045 -55.138)" fill="#f78419" stroke="#f78419" stroke-width="1"/>
        <path id="Path_270867" data-name="Path 270867" d="M239.224,194.529l-11.177-17.575,13.2-.143Z" transform="translate(-208.44 -104.729)" fill="#cd6200" stroke="#cd6200" stroke-width="1"/>
        <path id="Path_270868" data-name="Path 270868" d="M348.194,194.614l-2.229-17.752,13.343.159Z" transform="translate(-272.326 -104.757)" fill="#cd6200" stroke="#cd6200" stroke-width="1"/>
        <path id="Path_270869" data-name="Path 270869" d="M257.059,218.859l-4.621-3.381,13.205,4.241Z" transform="translate(-221.655 -125.678)" fill="#c0ac9d" stroke="#c0ac9d" stroke-width="1"/>
        <path id="Path_270870" data-name="Path 270870" d="M245,144.442l-9.515-9.542,23.727.669Z" transform="translate(-212.471 -82.023)" fill="#cd6200" stroke="#cd6200" stroke-width="1"/>
        <path id="Path_270871" data-name="Path 270871" d="M235.487,134.9,245,144.442l.28,9.662Z" transform="translate(-212.471 -82.023)" fill="#e47424" stroke="#e47424" stroke-width="1"/>
        <path id="Path_270872" data-name="Path 270872" d="M231.456,134.9l9.795,19.2-13.2.143Z" transform="translate(-208.44 -82.023)" fill="#f78419" stroke="#f78419" stroke-width="1"/>
        <path id="Path_270873" data-name="Path 270873" d="M320.672,219.812l13.819-4.21-4.767,3.373Z" transform="translate(-258.622 -125.745)" fill="#c0ac9d" stroke="#c0ac9d" stroke-width="1"/>
        <path id="Path_270874" data-name="Path 270874" d="M315.5,135.555l23.888-.678-9.617,9.561Z" transform="translate(-255.82 -82.01)" fill="#cd6200" stroke="#cd6200" stroke-width="1"/>
        <path id="Path_270875" data-name="Path 270875" d="M355.894,134.877l-9.929,19.239.311-9.678Z" transform="translate(-272.326 -82.01)" fill="#e47424" stroke="#e47424" stroke-width="1"/>
        <path id="Path_270876" data-name="Path 270876" d="M359.309,154.274l-13.343-.159,9.929-19.239Z" transform="translate(-272.326 -82.01)" fill="#f78419" stroke="#f78419" stroke-width="1"/>
        <path id="Path_270877" data-name="Path 270877" d="M265.483,214.9l.161,4.506-13.205-4.241Z" transform="translate(-221.655 -125.365)" fill="#d6c2b2" stroke="#d6c2b2" stroke-width="1"/>
        <path id="Path_270878" data-name="Path 270878" d="M252.438,203.758l14.188-9.913-1.143,9.648Z" transform="translate(-221.655 -113.958)" fill="#d6c2b2" stroke="#d6c2b2" stroke-width="1"/>
        <path id="Path_270879" data-name="Path 270879" d="M266.626,184.616l-14.188,9.913,2.027-17.718Z" transform="translate(-221.655 -104.729)" fill="#e47719" stroke="#e47719" stroke-width="1"/>
        <path id="Path_270880" data-name="Path 270880" d="M320.714,214.95l13.776.3-13.819,4.21Z" transform="translate(-258.622 -125.392)" fill="#d6c2b2" stroke="#d6c2b2" stroke-width="1"/>
        <path id="Path_270881" data-name="Path 270881" d="M333.166,203.831l-13.776-.3-1.163-9.657Z" transform="translate(-257.297 -113.974)" fill="#d6c2b2" stroke="#d6c2b2" stroke-width="1"/>
        <path id="Path_270882" data-name="Path 270882" d="M318.226,184.658l12.711-7.8,2.229,17.752Z" transform="translate(-257.297 -104.757)" fill="#e47719" stroke="#e47719" stroke-width="1"/>
        <path id="Path_270883" data-name="Path 270883" d="M270.463,136.361l-5.728,4.961-8.484,3.912Z" transform="translate(-223.72 -82.814)" fill="#cd6200" stroke="#cd6200" stroke-width="1"/>
        <path id="Path_270884" data-name="Path 270884" d="M329.771,145.24l-8.518-3.919-5.753-4.964Z" transform="translate(-255.82 -82.812)" fill="#cd6200" stroke="#cd6200" stroke-width="1"/>
        <path id="Path_270885" data-name="Path 270885" d="M268.22,154.4l-11.969-3.3,8.484-3.912Z" transform="translate(-223.72 -88.679)" fill="#243343" stroke="#243343" stroke-width="1"/>
        <path id="Path_270886" data-name="Path 270886" d="M256.531,165.387l-.28-9.662,11.969,3.3Z" transform="translate(-223.72 -93.305)" fill="#f78419" stroke="#f78419" stroke-width="1"/>
        <path id="Path_270887" data-name="Path 270887" d="M320.313,154.4l3.548-7.215,8.518,3.919Z" transform="translate(-258.428 -88.681)" fill="#243343" stroke="#243343" stroke-width="1"/>
        <path id="Path_270888" data-name="Path 270888" d="M332.068,165.42l-11.755-6.382,12.066-3.3Z" transform="translate(-258.428 -93.314)" fill="#f78419" stroke="#f78419" stroke-width="1"/>
        <path id="Path_270889" data-name="Path 270889" d="M274.766,141.322l5.728-4.961-2.243,12.171Z" transform="translate(-233.752 -82.814)" fill="#cd6200" stroke="#cd6200" stroke-width="1"/>
        <path id="Path_270890" data-name="Path 270890" d="M321.254,141.32l-3.548,7.215L315.5,136.357Z" transform="translate(-255.82 -82.812)" fill="#cd6200" stroke="#cd6200" stroke-width="1"/>
        <path id="Path_270891" data-name="Path 270891" d="M282.372,148.532l2.243-12.171.484,7.394Z" transform="translate(-237.872 -82.814)" fill="#e47424" stroke="#e47424" stroke-width="1"/>
        <path id="Path_270892" data-name="Path 270892" d="M287.751,143.753l-.484-7.394,12.937,0Z" transform="translate(-240.524 -82.812)" fill="#f78419" stroke="#f78419" stroke-width="1"/>
        <path id="Path_270893" data-name="Path 270893" d="M300.777,136.357l-.575,7.4-11.878,0Z" transform="translate(-241.097 -82.812)" fill="#f78419" stroke="#f78419" stroke-width="1"/>
        <path id="Path_270894" data-name="Path 270894" d="M317.026,148.535l-2.78-4.781.575-7.4Z" transform="translate(-255.14 -82.812)" fill="#e17719" stroke="#e17719" stroke-width="1"/>
        <path id="Path_270895" data-name="Path 270895" d="M271.107,223.716l.784,4.058-9.369-4.918Z" transform="translate(-227.118 -129.675)" fill="#c0ac9d" stroke="#c0ac9d" stroke-width="1"/>
        <path id="Path_270896" data-name="Path 270896" d="M328.765,222.964l-9.864,4.894.811-4.058Z" transform="translate(-257.663 -129.734)" fill="#c0ac9d" stroke="#c0ac9d" stroke-width="1"/>
        <path id="Path_270897" data-name="Path 270897" d="M269.023,177.092l-12.161-7.805,11.689-6.364Z" transform="translate(-224.051 -97.205)" fill="#f78419" stroke="#f78419" stroke-width="1"/>
        <path id="Path_270898" data-name="Path 270898" d="M319.182,162.935l11.755,6.382-12.711,7.8Z" transform="translate(-257.297 -97.211)" fill="#f78419" stroke="#f78419" stroke-width="1"/>
        <path id="Path_270899" data-name="Path 270899" d="M285.1,152.5l-.2,17.519-2.527-12.742Z" transform="translate(-237.872 -91.557)" fill="#e47424" stroke="#e47424" stroke-width="1"/>
        <path id="Path_270900" data-name="Path 270900" d="M282.372,162.923l2.527,12.742-2.056,1.427Z" transform="translate(-237.872 -97.205)" fill="#f78419" stroke="#f78419" stroke-width="1"/>
        <path id="Path_270901" data-name="Path 270901" d="M313.969,152.5l2.78,4.781-3.014,12.746Z" transform="translate(-254.864 -91.558)" fill="#e47424" stroke="#e47424" stroke-width="1"/>
        <path id="Path_270902" data-name="Path 270902" d="M315.793,177.113l-2.058-1.432,3.014-12.746Z" transform="translate(-254.864 -97.211)" fill="#f78419" stroke="#f78419" stroke-width="1"/>
        <path id="Path_270903" data-name="Path 270903" d="M288.324,152.5l11.878,0-.234,17.527Z" transform="translate(-241.097 -91.557)" fill="#f78419" stroke="#f78419" stroke-width="1"/>
        <path id="Path_270904" data-name="Path 270904" d="M299.731,170.026l-11.844-.01.2-17.519Z" transform="translate(-240.86 -91.557)" fill="#f78419" stroke="#f78419" stroke-width="1"/>
        <path id="Path_270905" data-name="Path 270905" d="M281.85,223.464l-.784-4.058-.161-4.506Z" transform="translate(-237.078 -125.365)" fill="#c0ac9d" stroke="#c0ac9d" stroke-width="1"/>
        <path id="Path_270906" data-name="Path 270906" d="M319.755,214.95l-.043,4.509-.811,4.058Z" transform="translate(-257.663 -125.392)" fill="#c0ac9d" stroke="#c0ac9d" stroke-width="1"/>
        <path id="Path_270907" data-name="Path 270907" d="M280.905,213.488l1.029-1.194-.084,9.758Z" transform="translate(-237.078 -123.953)" fill="#c0ac9d" stroke="#c0ac9d" stroke-width="1"/>
        <path id="Path_270908" data-name="Path 270908" d="M282.968,222.052l.084-9.758,16.149.019Z" transform="translate(-238.195 -123.953)" fill="#c0ac9d" stroke="#c0ac9d" stroke-width="1"/>
        <path id="Path_270909" data-name="Path 270909" d="M299.2,212.336l.232,9.764-16.465-.026Z" transform="translate(-238.195 -123.976)" fill="#c0ac9d" stroke="#c0ac9d" stroke-width="1"/>
        <path id="Path_270910" data-name="Path 270910" d="M318.627,222.1l-.232-9.764,1.086,1.2Z" transform="translate(-257.388 -123.976)" fill="#c0ac9d" stroke="#c0ac9d" stroke-width="1"/>
        <path id="Path_270911" data-name="Path 270911" d="M281.935,202.3l-1.029,1.194,1.143-9.648Z" transform="translate(-237.078 -113.958)" stroke="#000" stroke-width="1"/>
        <path id="Path_270912" data-name="Path 270912" d="M318.226,193.875l1.163,9.657-1.086-1.2Z" transform="translate(-257.297 -113.974)" stroke="#000" stroke-width="1"/>
        <path id="Path_270913" data-name="Path 270913" d="M283.266,193.845l.575,1.582-.689,6.872Z" transform="translate(-238.294 -113.958)" stroke="#000" stroke-width="1"/>
        <path id="Path_270914" data-name="Path 270914" d="M283.4,192.157l2.056-1.427-.167,1.53Z" transform="translate(-238.429 -112.27)" stroke="#000" stroke-width="1"/>
        <path id="Path_270915" data-name="Path 270915" d="M285.29,193.947l-1.314,1.48-.575-1.582Z" transform="translate(-238.429 -113.958)" stroke="#000" stroke-width="1"/>
        <path id="Path_270916" data-name="Path 270916" d="M287.524,192.259l.167-1.53,11.844.01Z" transform="translate(-240.663 -112.27)" stroke="#000" stroke-width="1"/>
        <path id="Path_270917" data-name="Path 270917" d="M299.534,190.751l.055,1.53-12.065-.011Z" transform="translate(-240.663 -112.281)" stroke="#000" stroke-width="1"/>
        <path id="Path_270918" data-name="Path 270918" d="M313.789,192.281l-.055-1.53,2.058,1.432Z" transform="translate(-254.864 -112.281)" stroke="#000" stroke-width="1"/>
        <path id="Path_270919" data-name="Path 270919" d="M317.49,202.335l-.765-6.877.688-1.582Z" transform="translate(-256.484 -113.974)" stroke="#000" stroke-width="1"/>
        <path id="Path_270920" data-name="Path 270920" d="M315.857,193.875l-.688,1.582-1.316-1.483Z" transform="translate(-254.928 -113.974)" stroke="#000" stroke-width="1"/>
        <path id="Path_270921" data-name="Path 270921" d="M299.3,204.189l-16.149-.019.689-6.872Z" transform="translate(-238.294 -115.828)" stroke="#000" stroke-width="1"/>
        <path id="Path_270922" data-name="Path 270922" d="M284.656,197.3l14.7.014.765,6.877Z" transform="translate(-239.109 -115.828)" stroke="#000" stroke-width="1"/>
        <path id="Path_270923" data-name="Path 270923" d="M284.656,195.548l1.314-1.48,12.065.011Z" transform="translate(-239.109 -114.078)" stroke="#000" stroke-width="1"/>
        <path id="Path_270924" data-name="Path 270924" d="M298.035,194.091l1.316,1.483-14.7-.014Z" transform="translate(-239.109 -114.091)" stroke="#000" stroke-width="1"/>
    </g>
</svg>
