<svg xmlns="http://www.w3.org/2000/svg" width="442" height="442" viewBox="0 0 442 442">
    <g id="Group_178307" data-name="Group 178307" transform="translate(-1244 -5656.7)">
        <g id="Ellipse_174" data-name="Ellipse 174" transform="translate(1244 5656.7)" fill="#090d4c" stroke="rgba(0,0,0,0)" stroke-width="1">
            <ellipse cx="2.5" cy="3" rx="2.5" ry="3" stroke="none"/>
            <ellipse cx="2.5" cy="3" rx="2" ry="2.5" fill="none"/>
        </g>
        <g id="Ellipse_175" data-name="Ellipse 175" transform="translate(1292.526 5657)" fill="#090d4c" stroke="rgba(0,0,0,0)" stroke-width="1">
            <circle cx="2.481" cy="2.481" r="2.481" stroke="none"/>
            <circle cx="2.481" cy="2.481" r="1.981" fill="none"/>
        </g>
        <g id="Ellipse_176" data-name="Ellipse 176" transform="translate(1341.053 5657)" fill="#090d4c" stroke="rgba(0,0,0,0)" stroke-width="1">
            <circle cx="2.481" cy="2.481" r="2.481" stroke="none"/>
            <circle cx="2.481" cy="2.481" r="1.981" fill="none"/>
        </g>
        <g id="Ellipse_177" data-name="Ellipse 177" transform="translate(1389.579 5657)" fill="#090d4c" stroke="rgba(0,0,0,0)" stroke-width="1">
            <circle cx="2.481" cy="2.481" r="2.481" stroke="none"/>
            <circle cx="2.481" cy="2.481" r="1.981" fill="none"/>
        </g>
        <g id="Ellipse_178" data-name="Ellipse 178" transform="translate(1438.105 5657)" fill="#090d4c" stroke="rgba(0,0,0,0)" stroke-width="1">
            <circle cx="2.481" cy="2.481" r="2.481" stroke="none"/>
            <circle cx="2.481" cy="2.481" r="1.981" fill="none"/>
        </g>
        <g id="Ellipse_179" data-name="Ellipse 179" transform="translate(1486.632 5657)" fill="#090d4c" stroke="rgba(0,0,0,0)" stroke-width="1">
            <circle cx="2.481" cy="2.481" r="2.481" stroke="none"/>
            <circle cx="2.481" cy="2.481" r="1.981" fill="none"/>
        </g>
        <g id="Ellipse_180" data-name="Ellipse 180" transform="translate(1535.158 5657)" fill="#090d4c" stroke="rgba(0,0,0,0)" stroke-width="1">
            <circle cx="2.481" cy="2.481" r="2.481" stroke="none"/>
            <circle cx="2.481" cy="2.481" r="1.981" fill="none"/>
        </g>
        <g id="Ellipse_181" data-name="Ellipse 181" transform="translate(1583.685 5657)" fill="#090d4c" stroke="rgba(0,0,0,0)" stroke-width="1">
            <circle cx="2.481" cy="2.481" r="2.481" stroke="none"/>
            <circle cx="2.481" cy="2.481" r="1.981" fill="none"/>
        </g>
        <g id="Ellipse_182" data-name="Ellipse 182" transform="translate(1632.211 5657)" fill="#090d4c" stroke="rgba(0,0,0,0)" stroke-width="1">
            <circle cx="2.481" cy="2.481" r="2.481" stroke="none"/>
            <circle cx="2.481" cy="2.481" r="1.981" fill="none"/>
        </g>
        <g id="Ellipse_183" data-name="Ellipse 183" transform="translate(1680 5656.7)" fill="#090d4c" stroke="rgba(0,0,0,0)" stroke-width="1">
            <circle cx="3" cy="3" r="3" stroke="none"/>
            <circle cx="3" cy="3" r="2.5" fill="none"/>
        </g>
        <g id="Ellipse_174-2" data-name="Ellipse 174" transform="translate(1244 6093.7)" fill="#090d4c" stroke="rgba(0,0,0,0)" stroke-width="1">
            <circle cx="2.5" cy="2.5" r="2.5" stroke="none"/>
            <circle cx="2.5" cy="2.5" r="2" fill="none"/>
        </g>
        <g id="Ellipse_175-2" data-name="Ellipse 175" transform="translate(1292.526 6093.737)" fill="#090d4c" stroke="rgba(0,0,0,0)" stroke-width="1">
            <circle cx="2.481" cy="2.481" r="2.481" stroke="none"/>
            <circle cx="2.481" cy="2.481" r="1.981" fill="none"/>
        </g>
        <g id="Ellipse_176-2" data-name="Ellipse 176" transform="translate(1341.053 6093.737)" fill="#090d4c" stroke="rgba(0,0,0,0)" stroke-width="1">
            <circle cx="2.481" cy="2.481" r="2.481" stroke="none"/>
            <circle cx="2.481" cy="2.481" r="1.981" fill="none"/>
        </g>
        <g id="Ellipse_177-2" data-name="Ellipse 177" transform="translate(1389.579 6093.737)" fill="#090d4c" stroke="rgba(0,0,0,0)" stroke-width="1">
            <circle cx="2.481" cy="2.481" r="2.481" stroke="none"/>
            <circle cx="2.481" cy="2.481" r="1.981" fill="none"/>
        </g>
        <g id="Ellipse_178-2" data-name="Ellipse 178" transform="translate(1438.105 6093.737)" fill="#090d4c" stroke="rgba(0,0,0,0)" stroke-width="1">
            <circle cx="2.481" cy="2.481" r="2.481" stroke="none"/>
            <circle cx="2.481" cy="2.481" r="1.981" fill="none"/>
        </g>
        <g id="Ellipse_179-2" data-name="Ellipse 179" transform="translate(1486.632 6093.737)" fill="#090d4c" stroke="rgba(0,0,0,0)" stroke-width="1">
            <circle cx="2.481" cy="2.481" r="2.481" stroke="none"/>
            <circle cx="2.481" cy="2.481" r="1.981" fill="none"/>
        </g>
        <g id="Ellipse_180-2" data-name="Ellipse 180" transform="translate(1535.158 6093.737)" fill="#090d4c" stroke="rgba(0,0,0,0)" stroke-width="1">
            <circle cx="2.481" cy="2.481" r="2.481" stroke="none"/>
            <circle cx="2.481" cy="2.481" r="1.981" fill="none"/>
        </g>
        <g id="Ellipse_181-2" data-name="Ellipse 181" transform="translate(1583.685 6093.737)" fill="#090d4c" stroke="rgba(0,0,0,0)" stroke-width="1">
            <circle cx="2.481" cy="2.481" r="2.481" stroke="none"/>
            <circle cx="2.481" cy="2.481" r="1.981" fill="none"/>
        </g>
        <g id="Ellipse_182-2" data-name="Ellipse 182" transform="translate(1632.211 6093.737)" fill="#090d4c" stroke="rgba(0,0,0,0)" stroke-width="1">
            <circle cx="2.481" cy="2.481" r="2.481" stroke="none"/>
            <circle cx="2.481" cy="2.481" r="1.981" fill="none"/>
        </g>
        <g id="Ellipse_183-2" data-name="Ellipse 183" transform="translate(1680 6093.7)" fill="#090d4c" stroke="rgba(0,0,0,0)" stroke-width="1">
            <ellipse cx="3" cy="2.5" rx="3" ry="2.5" stroke="none"/>
            <ellipse cx="3" cy="2.5" rx="2.5" ry="2" fill="none"/>
        </g>
        <g id="Ellipse_174-3" data-name="Ellipse 174" transform="translate(1244 6045.21)" fill="#090d4c" stroke="rgba(0,0,0,0)" stroke-width="1">
            <circle cx="2.481" cy="2.481" r="2.481" stroke="none"/>
            <circle cx="2.481" cy="2.481" r="1.981" fill="none"/>
        </g>
        <g id="Ellipse_175-3" data-name="Ellipse 175" transform="translate(1292.526 6045.21)" fill="#090d4c" stroke="rgba(0,0,0,0)" stroke-width="1">
            <circle cx="2.481" cy="2.481" r="2.481" stroke="none"/>
            <circle cx="2.481" cy="2.481" r="1.981" fill="none"/>
        </g>
        <g id="Ellipse_176-3" data-name="Ellipse 176" transform="translate(1341.053 6045.21)" fill="#090d4c" stroke="rgba(0,0,0,0)" stroke-width="1">
            <circle cx="2.481" cy="2.481" r="2.481" stroke="none"/>
            <circle cx="2.481" cy="2.481" r="1.981" fill="none"/>
        </g>
        <g id="Ellipse_177-3" data-name="Ellipse 177" transform="translate(1389.579 6045.21)" fill="#090d4c" stroke="rgba(0,0,0,0)" stroke-width="1">
            <circle cx="2.481" cy="2.481" r="2.481" stroke="none"/>
            <circle cx="2.481" cy="2.481" r="1.981" fill="none"/>
        </g>
        <g id="Ellipse_178-3" data-name="Ellipse 178" transform="translate(1438.105 6045.21)" fill="#090d4c" stroke="rgba(0,0,0,0)" stroke-width="1">
            <circle cx="2.481" cy="2.481" r="2.481" stroke="none"/>
            <circle cx="2.481" cy="2.481" r="1.981" fill="none"/>
        </g>
        <g id="Ellipse_179-3" data-name="Ellipse 179" transform="translate(1486.632 6045.21)" fill="#090d4c" stroke="rgba(0,0,0,0)" stroke-width="1">
            <circle cx="2.481" cy="2.481" r="2.481" stroke="none"/>
            <circle cx="2.481" cy="2.481" r="1.981" fill="none"/>
        </g>
        <g id="Ellipse_180-3" data-name="Ellipse 180" transform="translate(1535.158 6045.21)" fill="#090d4c" stroke="rgba(0,0,0,0)" stroke-width="1">
            <circle cx="2.481" cy="2.481" r="2.481" stroke="none"/>
            <circle cx="2.481" cy="2.481" r="1.981" fill="none"/>
        </g>
        <g id="Ellipse_181-3" data-name="Ellipse 181" transform="translate(1583.685 6045.21)" fill="#090d4c" stroke="rgba(0,0,0,0)" stroke-width="1">
            <circle cx="2.481" cy="2.481" r="2.481" stroke="none"/>
            <circle cx="2.481" cy="2.481" r="1.981" fill="none"/>
        </g>
        <g id="Ellipse_182-3" data-name="Ellipse 182" transform="translate(1632.211 6045.21)" fill="#090d4c" stroke="rgba(0,0,0,0)" stroke-width="1">
            <circle cx="2.481" cy="2.481" r="2.481" stroke="none"/>
            <circle cx="2.481" cy="2.481" r="1.981" fill="none"/>
        </g>
        <g id="Ellipse_183-3" data-name="Ellipse 183" transform="translate(1680.737 6045.21)" fill="#090d4c" stroke="rgba(0,0,0,0)" stroke-width="1">
            <circle cx="2.481" cy="2.481" r="2.481" stroke="none"/>
            <circle cx="2.481" cy="2.481" r="1.981" fill="none"/>
        </g>
        <g id="Ellipse_174-4" data-name="Ellipse 174" transform="translate(1244 5996.685)" fill="#090d4c" stroke="rgba(0,0,0,0)" stroke-width="1">
            <circle cx="2.481" cy="2.481" r="2.481" stroke="none"/>
            <circle cx="2.481" cy="2.481" r="1.981" fill="none"/>
        </g>
        <g id="Ellipse_175-4" data-name="Ellipse 175" transform="translate(1292.526 5996.685)" fill="#090d4c" stroke="rgba(0,0,0,0)" stroke-width="1">
            <circle cx="2.481" cy="2.481" r="2.481" stroke="none"/>
            <circle cx="2.481" cy="2.481" r="1.981" fill="none"/>
        </g>
        <g id="Ellipse_176-4" data-name="Ellipse 176" transform="translate(1341.053 5996.685)" fill="#090d4c" stroke="rgba(0,0,0,0)" stroke-width="1">
            <circle cx="2.481" cy="2.481" r="2.481" stroke="none"/>
            <circle cx="2.481" cy="2.481" r="1.981" fill="none"/>
        </g>
        <g id="Ellipse_177-4" data-name="Ellipse 177" transform="translate(1389.579 5996.685)" fill="#090d4c" stroke="rgba(0,0,0,0)" stroke-width="1">
            <circle cx="2.481" cy="2.481" r="2.481" stroke="none"/>
            <circle cx="2.481" cy="2.481" r="1.981" fill="none"/>
        </g>
        <g id="Ellipse_178-4" data-name="Ellipse 178" transform="translate(1438.105 5996.685)" fill="#090d4c" stroke="rgba(0,0,0,0)" stroke-width="1">
            <circle cx="2.481" cy="2.481" r="2.481" stroke="none"/>
            <circle cx="2.481" cy="2.481" r="1.981" fill="none"/>
        </g>
        <g id="Ellipse_179-4" data-name="Ellipse 179" transform="translate(1486.632 5996.685)" fill="#090d4c" stroke="rgba(0,0,0,0)" stroke-width="1">
            <circle cx="2.481" cy="2.481" r="2.481" stroke="none"/>
            <circle cx="2.481" cy="2.481" r="1.981" fill="none"/>
        </g>
        <g id="Ellipse_180-4" data-name="Ellipse 180" transform="translate(1535.158 5996.685)" fill="#090d4c" stroke="rgba(0,0,0,0)" stroke-width="1">
            <circle cx="2.481" cy="2.481" r="2.481" stroke="none"/>
            <circle cx="2.481" cy="2.481" r="1.981" fill="none"/>
        </g>
        <g id="Ellipse_181-4" data-name="Ellipse 181" transform="translate(1583.685 5996.685)" fill="#090d4c" stroke="rgba(0,0,0,0)" stroke-width="1">
            <circle cx="2.481" cy="2.481" r="2.481" stroke="none"/>
            <circle cx="2.481" cy="2.481" r="1.981" fill="none"/>
        </g>
        <g id="Ellipse_182-4" data-name="Ellipse 182" transform="translate(1632.211 5996.685)" fill="#090d4c" stroke="rgba(0,0,0,0)" stroke-width="1">
            <circle cx="2.481" cy="2.481" r="2.481" stroke="none"/>
            <circle cx="2.481" cy="2.481" r="1.981" fill="none"/>
        </g>
        <g id="Ellipse_183-4" data-name="Ellipse 183" transform="translate(1680.737 5996.685)" fill="#090d4c" stroke="rgba(0,0,0,0)" stroke-width="1">
            <circle cx="2.481" cy="2.481" r="2.481" stroke="none"/>
            <circle cx="2.481" cy="2.481" r="1.981" fill="none"/>
        </g>
        <g id="Ellipse_174-5" data-name="Ellipse 174" transform="translate(1244 5948.158)" fill="#090d4c" stroke="rgba(0,0,0,0)" stroke-width="1">
            <circle cx="2.481" cy="2.481" r="2.481" stroke="none"/>
            <circle cx="2.481" cy="2.481" r="1.981" fill="none"/>
        </g>
        <g id="Ellipse_175-5" data-name="Ellipse 175" transform="translate(1292.526 5948.158)" fill="#090d4c" stroke="rgba(0,0,0,0)" stroke-width="1">
            <circle cx="2.481" cy="2.481" r="2.481" stroke="none"/>
            <circle cx="2.481" cy="2.481" r="1.981" fill="none"/>
        </g>
        <g id="Ellipse_176-5" data-name="Ellipse 176" transform="translate(1341.053 5948.158)" fill="#090d4c" stroke="rgba(0,0,0,0)" stroke-width="1">
            <circle cx="2.481" cy="2.481" r="2.481" stroke="none"/>
            <circle cx="2.481" cy="2.481" r="1.981" fill="none"/>
        </g>
        <g id="Ellipse_177-5" data-name="Ellipse 177" transform="translate(1389.579 5948.158)" fill="#090d4c" stroke="rgba(0,0,0,0)" stroke-width="1">
            <circle cx="2.481" cy="2.481" r="2.481" stroke="none"/>
            <circle cx="2.481" cy="2.481" r="1.981" fill="none"/>
        </g>
        <g id="Ellipse_178-5" data-name="Ellipse 178" transform="translate(1438.105 5948.158)" fill="#090d4c" stroke="rgba(0,0,0,0)" stroke-width="1">
            <circle cx="2.481" cy="2.481" r="2.481" stroke="none"/>
            <circle cx="2.481" cy="2.481" r="1.981" fill="none"/>
        </g>
        <g id="Ellipse_179-5" data-name="Ellipse 179" transform="translate(1486.632 5948.158)" fill="#090d4c" stroke="rgba(0,0,0,0)" stroke-width="1">
            <circle cx="2.481" cy="2.481" r="2.481" stroke="none"/>
            <circle cx="2.481" cy="2.481" r="1.981" fill="none"/>
        </g>
        <g id="Ellipse_180-5" data-name="Ellipse 180" transform="translate(1535.158 5948.158)" fill="#090d4c" stroke="rgba(0,0,0,0)" stroke-width="1">
            <circle cx="2.481" cy="2.481" r="2.481" stroke="none"/>
            <circle cx="2.481" cy="2.481" r="1.981" fill="none"/>
        </g>
        <g id="Ellipse_181-5" data-name="Ellipse 181" transform="translate(1583.685 5948.158)" fill="#090d4c" stroke="rgba(0,0,0,0)" stroke-width="1">
            <circle cx="2.481" cy="2.481" r="2.481" stroke="none"/>
            <circle cx="2.481" cy="2.481" r="1.981" fill="none"/>
        </g>
        <g id="Ellipse_182-5" data-name="Ellipse 182" transform="translate(1632.211 5948.158)" fill="#090d4c" stroke="rgba(0,0,0,0)" stroke-width="1">
            <circle cx="2.481" cy="2.481" r="2.481" stroke="none"/>
            <circle cx="2.481" cy="2.481" r="1.981" fill="none"/>
        </g>
        <g id="Ellipse_183-5" data-name="Ellipse 183" transform="translate(1680.737 5948.158)" fill="#090d4c" stroke="rgba(0,0,0,0)" stroke-width="1">
            <circle cx="2.481" cy="2.481" r="2.481" stroke="none"/>
            <circle cx="2.481" cy="2.481" r="1.981" fill="none"/>
        </g>
        <g id="Ellipse_174-6" data-name="Ellipse 174" transform="translate(1244 5899.632)" fill="#090d4c" stroke="rgba(0,0,0,0)" stroke-width="1">
            <circle cx="2.481" cy="2.481" r="2.481" stroke="none"/>
            <circle cx="2.481" cy="2.481" r="1.981" fill="none"/>
        </g>
        <g id="Ellipse_175-6" data-name="Ellipse 175" transform="translate(1292.526 5899.632)" fill="#090d4c" stroke="rgba(0,0,0,0)" stroke-width="1">
            <circle cx="2.481" cy="2.481" r="2.481" stroke="none"/>
            <circle cx="2.481" cy="2.481" r="1.981" fill="none"/>
        </g>
        <g id="Ellipse_176-6" data-name="Ellipse 176" transform="translate(1341.053 5899.632)" fill="#090d4c" stroke="rgba(0,0,0,0)" stroke-width="1">
            <circle cx="2.481" cy="2.481" r="2.481" stroke="none"/>
            <circle cx="2.481" cy="2.481" r="1.981" fill="none"/>
        </g>
        <g id="Ellipse_177-6" data-name="Ellipse 177" transform="translate(1389.579 5899.632)" fill="#090d4c" stroke="rgba(0,0,0,0)" stroke-width="1">
            <circle cx="2.481" cy="2.481" r="2.481" stroke="none"/>
            <circle cx="2.481" cy="2.481" r="1.981" fill="none"/>
        </g>
        <g id="Ellipse_178-6" data-name="Ellipse 178" transform="translate(1438.105 5899.632)" fill="#090d4c" stroke="rgba(0,0,0,0)" stroke-width="1">
            <circle cx="2.481" cy="2.481" r="2.481" stroke="none"/>
            <circle cx="2.481" cy="2.481" r="1.981" fill="none"/>
        </g>
        <g id="Ellipse_179-6" data-name="Ellipse 179" transform="translate(1486.632 5899.632)" fill="#090d4c" stroke="rgba(0,0,0,0)" stroke-width="1">
            <circle cx="2.481" cy="2.481" r="2.481" stroke="none"/>
            <circle cx="2.481" cy="2.481" r="1.981" fill="none"/>
        </g>
        <g id="Ellipse_180-6" data-name="Ellipse 180" transform="translate(1535.158 5899.632)" fill="#090d4c" stroke="rgba(0,0,0,0)" stroke-width="1">
            <circle cx="2.481" cy="2.481" r="2.481" stroke="none"/>
            <circle cx="2.481" cy="2.481" r="1.981" fill="none"/>
        </g>
        <g id="Ellipse_181-6" data-name="Ellipse 181" transform="translate(1583.685 5899.632)" fill="#090d4c" stroke="rgba(0,0,0,0)" stroke-width="1">
            <circle cx="2.481" cy="2.481" r="2.481" stroke="none"/>
            <circle cx="2.481" cy="2.481" r="1.981" fill="none"/>
        </g>
        <g id="Ellipse_182-6" data-name="Ellipse 182" transform="translate(1632.211 5899.632)" fill="#090d4c" stroke="rgba(0,0,0,0)" stroke-width="1">
            <circle cx="2.481" cy="2.481" r="2.481" stroke="none"/>
            <circle cx="2.481" cy="2.481" r="1.981" fill="none"/>
        </g>
        <g id="Ellipse_183-6" data-name="Ellipse 183" transform="translate(1680.737 5899.632)" fill="#090d4c" stroke="rgba(0,0,0,0)" stroke-width="1">
            <circle cx="2.481" cy="2.481" r="2.481" stroke="none"/>
            <circle cx="2.481" cy="2.481" r="1.981" fill="none"/>
        </g>
        <g id="Ellipse_174-7" data-name="Ellipse 174" transform="translate(1244 5851.105)" fill="#090d4c" stroke="rgba(0,0,0,0)" stroke-width="1">
            <circle cx="2.481" cy="2.481" r="2.481" stroke="none"/>
            <circle cx="2.481" cy="2.481" r="1.981" fill="none"/>
        </g>
        <g id="Ellipse_175-7" data-name="Ellipse 175" transform="translate(1292.526 5851.105)" fill="#090d4c" stroke="rgba(0,0,0,0)" stroke-width="1">
            <circle cx="2.481" cy="2.481" r="2.481" stroke="none"/>
            <circle cx="2.481" cy="2.481" r="1.981" fill="none"/>
        </g>
        <g id="Ellipse_176-7" data-name="Ellipse 176" transform="translate(1341.053 5851.105)" fill="#090d4c" stroke="rgba(0,0,0,0)" stroke-width="1">
            <circle cx="2.481" cy="2.481" r="2.481" stroke="none"/>
            <circle cx="2.481" cy="2.481" r="1.981" fill="none"/>
        </g>
        <g id="Ellipse_177-7" data-name="Ellipse 177" transform="translate(1389.579 5851.105)" fill="#090d4c" stroke="rgba(0,0,0,0)" stroke-width="1">
            <circle cx="2.481" cy="2.481" r="2.481" stroke="none"/>
            <circle cx="2.481" cy="2.481" r="1.981" fill="none"/>
        </g>
        <g id="Ellipse_178-7" data-name="Ellipse 178" transform="translate(1438.105 5851.105)" fill="#090d4c" stroke="rgba(0,0,0,0)" stroke-width="1">
            <circle cx="2.481" cy="2.481" r="2.481" stroke="none"/>
            <circle cx="2.481" cy="2.481" r="1.981" fill="none"/>
        </g>
        <g id="Ellipse_179-7" data-name="Ellipse 179" transform="translate(1486.632 5851.105)" fill="#090d4c" stroke="rgba(0,0,0,0)" stroke-width="1">
            <circle cx="2.481" cy="2.481" r="2.481" stroke="none"/>
            <circle cx="2.481" cy="2.481" r="1.981" fill="none"/>
        </g>
        <g id="Ellipse_180-7" data-name="Ellipse 180" transform="translate(1535.158 5851.105)" fill="#090d4c" stroke="rgba(0,0,0,0)" stroke-width="1">
            <circle cx="2.481" cy="2.481" r="2.481" stroke="none"/>
            <circle cx="2.481" cy="2.481" r="1.981" fill="none"/>
        </g>
        <g id="Ellipse_181-7" data-name="Ellipse 181" transform="translate(1583.685 5851.105)" fill="#090d4c" stroke="rgba(0,0,0,0)" stroke-width="1">
            <circle cx="2.481" cy="2.481" r="2.481" stroke="none"/>
            <circle cx="2.481" cy="2.481" r="1.981" fill="none"/>
        </g>
        <g id="Ellipse_182-7" data-name="Ellipse 182" transform="translate(1632.211 5851.105)" fill="#090d4c" stroke="rgba(0,0,0,0)" stroke-width="1">
            <circle cx="2.481" cy="2.481" r="2.481" stroke="none"/>
            <circle cx="2.481" cy="2.481" r="1.981" fill="none"/>
        </g>
        <g id="Ellipse_183-7" data-name="Ellipse 183" transform="translate(1680.737 5851.105)" fill="#090d4c" stroke="rgba(0,0,0,0)" stroke-width="1">
            <circle cx="2.481" cy="2.481" r="2.481" stroke="none"/>
            <circle cx="2.481" cy="2.481" r="1.981" fill="none"/>
        </g>
        <g id="Ellipse_174-8" data-name="Ellipse 174" transform="translate(1244 5802.579)" fill="#090d4c" stroke="rgba(0,0,0,0)" stroke-width="1">
            <circle cx="2.481" cy="2.481" r="2.481" stroke="none"/>
            <circle cx="2.481" cy="2.481" r="1.981" fill="none"/>
        </g>
        <g id="Ellipse_175-8" data-name="Ellipse 175" transform="translate(1292.526 5802.579)" fill="#090d4c" stroke="rgba(0,0,0,0)" stroke-width="1">
            <circle cx="2.481" cy="2.481" r="2.481" stroke="none"/>
            <circle cx="2.481" cy="2.481" r="1.981" fill="none"/>
        </g>
        <g id="Ellipse_176-8" data-name="Ellipse 176" transform="translate(1341.053 5802.579)" fill="#090d4c" stroke="rgba(0,0,0,0)" stroke-width="1">
            <circle cx="2.481" cy="2.481" r="2.481" stroke="none"/>
            <circle cx="2.481" cy="2.481" r="1.981" fill="none"/>
        </g>
        <g id="Ellipse_177-8" data-name="Ellipse 177" transform="translate(1389.579 5802.579)" fill="#090d4c" stroke="rgba(0,0,0,0)" stroke-width="1">
            <circle cx="2.481" cy="2.481" r="2.481" stroke="none"/>
            <circle cx="2.481" cy="2.481" r="1.981" fill="none"/>
        </g>
        <g id="Ellipse_178-8" data-name="Ellipse 178" transform="translate(1438.105 5802.579)" fill="#090d4c" stroke="rgba(0,0,0,0)" stroke-width="1">
            <circle cx="2.481" cy="2.481" r="2.481" stroke="none"/>
            <circle cx="2.481" cy="2.481" r="1.981" fill="none"/>
        </g>
        <g id="Ellipse_179-8" data-name="Ellipse 179" transform="translate(1486.632 5802.579)" fill="#090d4c" stroke="rgba(0,0,0,0)" stroke-width="1">
            <circle cx="2.481" cy="2.481" r="2.481" stroke="none"/>
            <circle cx="2.481" cy="2.481" r="1.981" fill="none"/>
        </g>
        <g id="Ellipse_180-8" data-name="Ellipse 180" transform="translate(1535.158 5802.579)" fill="#090d4c" stroke="rgba(0,0,0,0)" stroke-width="1">
            <circle cx="2.481" cy="2.481" r="2.481" stroke="none"/>
            <circle cx="2.481" cy="2.481" r="1.981" fill="none"/>
        </g>
        <g id="Ellipse_181-8" data-name="Ellipse 181" transform="translate(1583.685 5802.579)" fill="#090d4c" stroke="rgba(0,0,0,0)" stroke-width="1">
            <circle cx="2.481" cy="2.481" r="2.481" stroke="none"/>
            <circle cx="2.481" cy="2.481" r="1.981" fill="none"/>
        </g>
        <g id="Ellipse_182-8" data-name="Ellipse 182" transform="translate(1632.211 5802.579)" fill="#090d4c" stroke="rgba(0,0,0,0)" stroke-width="1">
            <circle cx="2.481" cy="2.481" r="2.481" stroke="none"/>
            <circle cx="2.481" cy="2.481" r="1.981" fill="none"/>
        </g>
        <g id="Ellipse_183-8" data-name="Ellipse 183" transform="translate(1680.737 5802.579)" fill="#090d4c" stroke="rgba(0,0,0,0)" stroke-width="1">
            <circle cx="2.481" cy="2.481" r="2.481" stroke="none"/>
            <circle cx="2.481" cy="2.481" r="1.981" fill="none"/>
        </g>
        <g id="Ellipse_174-9" data-name="Ellipse 174" transform="translate(1244 5754.052)" fill="#090d4c" stroke="rgba(0,0,0,0)" stroke-width="1">
            <circle cx="2.481" cy="2.481" r="2.481" stroke="none"/>
            <circle cx="2.481" cy="2.481" r="1.981" fill="none"/>
        </g>
        <g id="Ellipse_175-9" data-name="Ellipse 175" transform="translate(1292.526 5754.052)" fill="#090d4c" stroke="rgba(0,0,0,0)" stroke-width="1">
            <circle cx="2.481" cy="2.481" r="2.481" stroke="none"/>
            <circle cx="2.481" cy="2.481" r="1.981" fill="none"/>
        </g>
        <g id="Ellipse_176-9" data-name="Ellipse 176" transform="translate(1341.053 5754.052)" fill="#090d4c" stroke="rgba(0,0,0,0)" stroke-width="1">
            <circle cx="2.481" cy="2.481" r="2.481" stroke="none"/>
            <circle cx="2.481" cy="2.481" r="1.981" fill="none"/>
        </g>
        <g id="Ellipse_177-9" data-name="Ellipse 177" transform="translate(1389.579 5754.052)" fill="#090d4c" stroke="rgba(0,0,0,0)" stroke-width="1">
            <circle cx="2.481" cy="2.481" r="2.481" stroke="none"/>
            <circle cx="2.481" cy="2.481" r="1.981" fill="none"/>
        </g>
        <g id="Ellipse_178-9" data-name="Ellipse 178" transform="translate(1438.105 5754.052)" fill="#090d4c" stroke="rgba(0,0,0,0)" stroke-width="1">
            <circle cx="2.481" cy="2.481" r="2.481" stroke="none"/>
            <circle cx="2.481" cy="2.481" r="1.981" fill="none"/>
        </g>
        <g id="Ellipse_179-9" data-name="Ellipse 179" transform="translate(1486.632 5754.052)" fill="#090d4c" stroke="rgba(0,0,0,0)" stroke-width="1">
            <circle cx="2.481" cy="2.481" r="2.481" stroke="none"/>
            <circle cx="2.481" cy="2.481" r="1.981" fill="none"/>
        </g>
        <g id="Ellipse_180-9" data-name="Ellipse 180" transform="translate(1535.158 5754.052)" fill="#090d4c" stroke="rgba(0,0,0,0)" stroke-width="1">
            <circle cx="2.481" cy="2.481" r="2.481" stroke="none"/>
            <circle cx="2.481" cy="2.481" r="1.981" fill="none"/>
        </g>
        <g id="Ellipse_181-9" data-name="Ellipse 181" transform="translate(1583.685 5754.052)" fill="#090d4c" stroke="rgba(0,0,0,0)" stroke-width="1">
            <circle cx="2.481" cy="2.481" r="2.481" stroke="none"/>
            <circle cx="2.481" cy="2.481" r="1.981" fill="none"/>
        </g>
        <g id="Ellipse_182-9" data-name="Ellipse 182" transform="translate(1632.211 5754.052)" fill="#090d4c" stroke="rgba(0,0,0,0)" stroke-width="1">
            <circle cx="2.481" cy="2.481" r="2.481" stroke="none"/>
            <circle cx="2.481" cy="2.481" r="1.981" fill="none"/>
        </g>
        <g id="Ellipse_183-9" data-name="Ellipse 183" transform="translate(1680.737 5754.052)" fill="#090d4c" stroke="rgba(0,0,0,0)" stroke-width="1">
            <circle cx="2.481" cy="2.481" r="2.481" stroke="none"/>
            <circle cx="2.481" cy="2.481" r="1.981" fill="none"/>
        </g>
        <g id="Ellipse_174-10" data-name="Ellipse 174" transform="translate(1244 5705.527)" fill="#090d4c" stroke="rgba(0,0,0,0)" stroke-width="1">
            <circle cx="2.481" cy="2.481" r="2.481" stroke="none"/>
            <circle cx="2.481" cy="2.481" r="1.981" fill="none"/>
        </g>
        <g id="Ellipse_175-10" data-name="Ellipse 175" transform="translate(1292.526 5705.527)" fill="#090d4c" stroke="rgba(0,0,0,0)" stroke-width="1">
            <circle cx="2.481" cy="2.481" r="2.481" stroke="none"/>
            <circle cx="2.481" cy="2.481" r="1.981" fill="none"/>
        </g>
        <g id="Ellipse_176-10" data-name="Ellipse 176" transform="translate(1341.053 5705.527)" fill="#090d4c" stroke="rgba(0,0,0,0)" stroke-width="1">
            <circle cx="2.481" cy="2.481" r="2.481" stroke="none"/>
            <circle cx="2.481" cy="2.481" r="1.981" fill="none"/>
        </g>
        <g id="Ellipse_177-10" data-name="Ellipse 177" transform="translate(1389.579 5705.527)" fill="#090d4c" stroke="rgba(0,0,0,0)" stroke-width="1">
            <circle cx="2.481" cy="2.481" r="2.481" stroke="none"/>
            <circle cx="2.481" cy="2.481" r="1.981" fill="none"/>
        </g>
        <g id="Ellipse_178-10" data-name="Ellipse 178" transform="translate(1438.105 5705.527)" fill="#090d4c" stroke="rgba(0,0,0,0)" stroke-width="1">
            <circle cx="2.481" cy="2.481" r="2.481" stroke="none"/>
            <circle cx="2.481" cy="2.481" r="1.981" fill="none"/>
        </g>
        <g id="Ellipse_179-10" data-name="Ellipse 179" transform="translate(1486.632 5705.527)" fill="#090d4c" stroke="rgba(0,0,0,0)" stroke-width="1">
            <circle cx="2.481" cy="2.481" r="2.481" stroke="none"/>
            <circle cx="2.481" cy="2.481" r="1.981" fill="none"/>
        </g>
        <g id="Ellipse_180-10" data-name="Ellipse 180" transform="translate(1535.158 5705.527)" fill="#090d4c" stroke="rgba(0,0,0,0)" stroke-width="1">
            <circle cx="2.481" cy="2.481" r="2.481" stroke="none"/>
            <circle cx="2.481" cy="2.481" r="1.981" fill="none"/>
        </g>
        <g id="Ellipse_181-10" data-name="Ellipse 181" transform="translate(1583.685 5705.527)" fill="#090d4c" stroke="rgba(0,0,0,0)" stroke-width="1">
            <circle cx="2.481" cy="2.481" r="2.481" stroke="none"/>
            <circle cx="2.481" cy="2.481" r="1.981" fill="none"/>
        </g>
        <g id="Ellipse_182-10" data-name="Ellipse 182" transform="translate(1632.211 5705.527)" fill="#090d4c" stroke="rgba(0,0,0,0)" stroke-width="1">
            <circle cx="2.481" cy="2.481" r="2.481" stroke="none"/>
            <circle cx="2.481" cy="2.481" r="1.981" fill="none"/>
        </g>
        <g id="Ellipse_183-10" data-name="Ellipse 183" transform="translate(1680.737 5705.527)" fill="#090d4c" stroke="rgba(0,0,0,0)" stroke-width="1">
            <circle cx="2.481" cy="2.481" r="2.481" stroke="none"/>
            <circle cx="2.481" cy="2.481" r="1.981" fill="none"/>
        </g>
    </g>
</svg>
